<svg width="162" height="162" viewBox="0 0 162 162" fill="none" xmlns="http://www.w3.org/2000/svg">
<rect width="162" height="162" fill="white"/>
<rect width="162" height="162" fill="#FFE6EE"/>
<path d="M18.3765 33.4014V41.1672C18.3765 43.5026 20.2616 45.3877 22.597 45.3877C23.4411 44.825 23.4411 43.1368 23.4411 43.1368" stroke="#1D1952" stroke-width="1.12548" stroke-miterlimit="10" stroke-linecap="round"/>
<path d="M24.5664 44.8252L23.2721 45.0503" stroke="#1D1952" stroke-width="1.12548" stroke-miterlimit="10" stroke-linecap="round"/>
<path d="M24.2853 45.6692L22.991 45.3315" stroke="#1D1952" stroke-width="1.12548" stroke-miterlimit="10" stroke-linecap="round"/>
<path d="M23.7224 46.5137C23.0753 46.3167 23.0471 46.2042 22.5969 45.3882" stroke="#1D1952" stroke-width="1.12548" stroke-miterlimit="10" stroke-linecap="round"/>
<path d="M42.8556 19.7833C36.3841 17.8137 33.0077 22.597 33.0077 22.597C33.0077 22.597 29.6313 17.8137 23.1597 19.7833C15 22.2594 14.1559 33.0077 21.1901 39.1979C26.5643 43.9249 30.616 45.8663 32.248 46.5135C32.7545 46.7104 33.2891 46.7104 33.7955 46.5135C35.4275 45.8663 39.4792 43.9249 44.8534 39.1979C51.8595 33.0077 51.0154 22.2594 42.8556 19.7833Z" fill="#F73959"/>
<path opacity="0.5" d="M48.8488 25.2139C49.5803 29.2093 48.0891 33.8801 44.2624 37.2284C42.0396 39.1698 39.7887 40.7736 37.8753 41.9554C34.9772 43.7843 31.3194 43.8968 28.2806 42.3212C25.9171 41.1113 23.0753 39.3949 20.6274 37.2284C18.7422 35.5683 17.4479 33.5987 16.6882 31.5447C17.2509 34.274 18.7422 37.0314 21.1901 39.198C26.5643 43.925 30.616 45.8664 32.2479 46.5136C32.7544 46.7105 33.289 46.7105 33.7955 46.5136C35.4274 45.8664 39.4792 43.925 44.8533 39.198C49.2708 35.2869 50.5651 29.5188 48.8488 25.2139Z" fill="#C02344"/>
<path d="M23.8069 21.9501C24.0038 21.8938 24.2008 21.8375 24.3978 21.7812M42.7712 22.147C44.1218 22.6816 45.2192 23.5257 46.007 24.6512L42.7712 22.147ZM39.8168 21.5562C40.0701 21.5562 40.3515 21.5843 40.6047 21.6124L39.8168 21.5562ZM26.7331 21.5843C28.1681 21.6968 29.2655 22.2596 29.997 22.7942L26.7331 21.5843Z" stroke="white" stroke-width="1.12548" stroke-miterlimit="10" stroke-linecap="round" stroke-linejoin="round"/>
<path d="M25.7765 34.9772C23.3004 34.9772 21.3027 32.9795 21.3027 30.5034V28.8433C21.3027 27.8867 22.0905 27.127 23.019 27.127H28.5339C29.4905 27.127 30.2502 27.9148 30.2502 28.8433V30.5034C30.2502 32.9795 28.2525 34.9772 25.7765 34.9772ZM37.9879 34.9772C35.5119 34.9772 33.5141 32.9795 33.5141 30.5034V28.8433C33.5141 27.8867 34.302 27.127 35.2305 27.127H40.7453C41.702 27.127 42.4617 27.9148 42.4617 28.8433V30.5034C42.4898 32.9795 40.464 34.9772 37.9879 34.9772Z" fill="#1D1952"/>
<path d="M29.153 29.5185C29.153 29.5185 30.3628 28.3086 31.8822 28.3086C33.4016 28.3086 34.921 29.5185 34.921 29.5185" stroke="#1D1952" stroke-width="1.12548" stroke-miterlimit="10"/>
<path d="M23.7224 29.6313L26.6768 32.5857" stroke="#AAAAE5" stroke-width="1.12548" stroke-miterlimit="10" stroke-linecap="round"/>
<path d="M27.0989 29.9126L28.2244 31.0381" stroke="#AAAAE5" stroke-width="1.12548" stroke-miterlimit="10" stroke-linecap="round"/>
<path d="M36.1028 29.6313L39.0572 32.5857" stroke="#AAAAE5" stroke-width="1.12548" stroke-miterlimit="10" stroke-linecap="round"/>
<path d="M39.4791 29.9126L40.6046 31.0381" stroke="#AAAAE5" stroke-width="1.12548" stroke-miterlimit="10" stroke-linecap="round"/>
<path d="M35.4275 36.6655C35.9621 36.6655 36.3841 37.172 36.2716 37.7066C35.7933 39.6762 34.0206 41.1674 31.8822 41.1674C29.7719 41.1674 27.9993 39.7043 27.521 37.7347C27.3803 37.2001 27.8024 36.6655 28.3651 36.6655H35.4275Z" fill="#8E072B"/>
<path d="M35.4275 36.6655C35.9621 36.6655 36.3841 37.172 36.2716 37.7066C35.7933 39.6762 34.0206 41.1674 31.8822 41.1674C29.7719 41.1674 27.9993 39.7043 27.521 37.7347C27.3803 37.2001 27.8024 36.6655 28.3651 36.6655H35.4275Z" fill="#1D1952"/>
<path d="M31.8822 41.1674C33.3453 41.1674 34.6396 40.464 35.4556 39.3948C34.8084 38.7758 33.9362 38.3818 32.9795 38.3818C31.4883 38.3818 30.2221 39.3104 29.6875 40.6047C30.3628 40.9704 31.0944 41.1674 31.8822 41.1674Z" fill="#C02344"/>
<path d="M33.5705 37.791H30.194C29.8845 37.791 29.6313 37.5378 29.6313 37.2283V36.6655H34.1332V37.2283C34.1332 37.5378 33.88 37.791 33.5705 37.791ZM33.5705 39.7606C32.445 39.9013 31.3195 39.9013 30.194 39.7606C29.8845 39.7606 29.6313 40.0138 29.6313 40.3233V40.5484C30.3066 40.9424 31.0663 41.1674 31.8822 41.1674C32.6982 41.1674 33.4579 40.9424 34.1332 40.5766V40.3233C34.1332 40.0138 33.88 39.7606 33.5705 39.7606Z" fill="white"/>
<path d="M47.3576 33.4014V41.1672C47.3576 43.5026 45.4725 45.3877 43.1371 45.3877C42.293 44.825 42.293 43.1368 42.293 43.1368" stroke="#1D1952" stroke-width="1.12548" stroke-miterlimit="10" stroke-linecap="round"/>
<path d="M41.1674 45.1066L42.4899 45.0503" stroke="#1D1952" stroke-width="1.12548" stroke-miterlimit="10" stroke-linecap="round"/>
<path d="M41.4488 45.9506L42.7712 45.3315" stroke="#1D1952" stroke-width="1.12548" stroke-miterlimit="10" stroke-linecap="round"/>
<path d="M42.0116 46.5137C42.912 46.2042 43.0808 46.0916 43.1371 45.3882" stroke="#1D1952" stroke-width="1.12548" stroke-miterlimit="10" stroke-linecap="round"/>
<path d="M24.004 25.6919H27.6618" stroke="#C02344" stroke-width="1.12548" stroke-miterlimit="10" stroke-linecap="round" stroke-linejoin="round"/>
<path d="M35.5401 25.1294H39.4793" stroke="#C02344" stroke-width="1.12548" stroke-miterlimit="10" stroke-linecap="round" stroke-linejoin="round"/>
<g clip-path="url(#clip0)">
<path d="M80.601 22.3156C75.7614 21.7529 74.0169 25.3826 74.0169 25.3826C74.0169 25.3826 71.0063 22.7095 66.7576 25.073C61.3834 28.0556 62.2838 35.737 68.1363 39.3667C72.6101 42.1241 75.7614 42.9963 76.9994 43.2496C77.3652 43.334 77.7591 43.2496 78.0687 43.0245C79.1097 42.321 81.6702 40.3233 84.7653 36.0465C88.817 30.5035 86.7067 23.019 80.601 22.3156Z" fill="#F73959"/>
<path opacity="0.5" d="M84.7934 34.2177C82.9082 36.8063 81.22 38.5789 79.9538 39.7044C78.5188 40.9706 76.5211 41.3926 74.7203 40.7455C73.1447 40.1546 70.8937 39.1698 68.1644 37.5097C65.21 35.6808 63.5218 32.8108 63.2686 30.0534C62.7902 33.3173 64.5066 37.1158 68.1363 39.3668C72.61 42.1242 75.7614 42.9964 76.9994 43.2497C77.3652 43.3341 77.7591 43.2497 78.0686 43.0246C79.1097 42.3211 81.6702 40.3234 84.7652 36.0466C86.3409 33.88 86.9881 31.404 86.8192 29.1812C86.5941 30.8975 85.947 32.6139 84.7934 34.2177Z" fill="#C02344"/>
<path d="M80.2071 23.9194C80.2915 23.9194 80.3477 23.9194 80.4322 23.9476M69.0929 25.8609C69.1773 25.8327 69.2336 25.8328 69.318 25.8046L69.0929 25.8609ZM66.3918 27.324C66.7294 27.0145 67.0952 26.7331 67.5454 26.4799L66.3918 27.324Z" stroke="white" stroke-width="1.12548" stroke-miterlimit="10" stroke-linecap="round" stroke-linejoin="round"/>
<path d="M77.0557 29.4061C77.3089 30.2783 78.2374 30.7848 79.0815 30.5034C79.9538 30.2502 80.4602 29.3216 80.1789 28.4775M68.9803 31.3757C69.2336 32.2479 70.1621 32.7544 71.0062 32.473C71.8785 32.2198 72.3849 31.2912 72.1036 30.4471M74.5515 35.0897C74.8047 35.962 75.5363 36.5247 76.1553 36.3278C76.7743 36.1308 77.0838 35.2867 76.8306 34.4144" stroke="#1D1952" stroke-width="1.12548" stroke-miterlimit="10" stroke-linecap="round"/>
<path d="M77.0557 24.5385C77.4496 24.3134 77.9279 24.1165 78.5188 24.0039" stroke="white" stroke-width="1.12548" stroke-miterlimit="10" stroke-linecap="round" stroke-linejoin="round"/>
<path d="M82.9927 26.4797C87.4102 25.9733 88.9859 29.2653 88.9859 29.2653C88.9859 29.2653 91.7152 26.8174 95.5981 28.9839C100.494 31.6851 99.6779 38.6912 94.3319 41.9832C90.252 44.4874 87.4102 45.2753 86.2847 45.5285C85.9471 45.6129 85.5813 45.5285 85.2999 45.3315C84.3433 44.6844 82.0079 42.8555 79.1942 39.0007C75.5364 33.936 77.4497 27.1269 82.9927 26.4797Z" fill="#EF8FA9"/>
<path d="M79.1659 37.3123C80.8823 39.6758 82.4298 41.2515 83.5835 42.2925C84.8778 43.4462 86.7067 43.8119 88.3386 43.2492C89.8017 42.7427 91.8276 41.8423 94.3037 40.3229C97.0048 38.6629 98.5242 36.0743 98.7774 33.5419C99.2276 36.5244 97.652 39.9853 94.3599 42.0112C90.2801 44.5154 87.4382 45.3032 86.3128 45.5564C85.9751 45.6408 85.6093 45.5564 85.328 45.3595C84.3713 44.7123 82.0359 42.8834 79.2222 39.0286C77.7872 37.0591 77.1964 34.8081 77.3652 32.7822C77.534 34.2735 78.1249 35.8492 79.1659 37.3123Z" fill="#E87498"/>
<path d="M86.2284 28.5056C85.8626 28.2805 85.4124 28.1117 84.9059 27.9991M93.4877 29.7155C93.4315 29.6874 93.347 29.6874 93.2908 29.6592L93.4877 29.7155ZM95.9638 31.0379C95.6543 30.7566 95.3166 30.5033 94.9227 30.2782L95.9638 31.0379ZM83.3865 27.9429C83.3303 27.9429 83.2458 27.9429 83.1896 27.971L83.3865 27.9429Z" stroke="white" stroke-width="1.12548" stroke-miterlimit="10" stroke-linecap="round" stroke-linejoin="round"/>
<path d="M85.9188 33.3733C85.7218 34.0486 85.0184 34.4426 84.3431 34.2456C83.6678 34.0486 83.2739 33.3452 83.4709 32.6699M92.1934 34.8646C91.9964 35.5399 91.293 35.9338 90.6177 35.7369C89.9424 35.5399 89.5485 34.8083 89.7454 34.133M87.8603 37.7627C87.6633 38.438 87.1006 38.8601 86.6222 38.7194C86.1439 38.5787 85.8907 37.9034 86.1158 37.2281" stroke="#1D1952" stroke-width="1.12548" stroke-miterlimit="10" stroke-linecap="round"/>
<path d="M81.839 45.3038C80.9667 45.2757 80.7135 45.9509 80.7135 45.9509C80.7135 45.9509 80.1508 45.5289 79.4192 46.0072C78.5188 46.5981 78.772 47.9487 79.8694 48.5114C80.6854 48.9335 81.2762 49.046 81.4732 49.0742C81.5295 49.0742 81.6139 49.0742 81.6702 49.0179C81.839 48.8772 82.261 48.4833 82.7394 47.6954C83.4147 46.6262 82.9363 45.3319 81.839 45.3038ZM91.0679 19.6147C90.2238 18.9113 89.436 19.3896 89.436 19.3896C89.436 19.3896 89.2109 18.5174 88.0854 18.4329C86.6785 18.3204 85.8907 19.8961 86.566 21.3311C87.0725 22.4003 87.5508 22.963 87.7759 23.1881C87.8322 23.2444 87.9166 23.2725 88.001 23.2725C88.2824 23.2725 89.0139 23.2162 90.1394 22.7942C91.6025 22.2033 92.1371 20.5151 91.0679 19.6147Z" fill="#F95F80"/>
<path d="M80.9386 17.1383C80.1507 17.1664 79.9819 17.7854 79.9819 17.7854C79.9819 17.7854 79.4473 17.4478 78.8283 17.9261C78.0686 18.517 78.4062 19.7269 79.4192 20.1489C80.207 20.4584 80.7135 20.5147 80.9104 20.5428C80.9667 20.5428 81.023 20.5147 81.0793 20.4866C81.2199 20.3459 81.5857 19.9801 81.9515 19.2204C82.4298 18.2075 81.8952 17.082 80.9386 17.1383Z" fill="#EF8FA9"/>
<path d="M73.8199 21.3028C74.4571 21.3028 74.9736 20.7863 74.9736 20.1492C74.9736 19.5121 74.4571 18.9956 73.8199 18.9956C73.1828 18.9956 72.6663 19.5121 72.6663 20.1492C72.6663 20.7863 73.1828 21.3028 73.8199 21.3028Z" stroke="#AAAAE5" stroke-width="1.12548" stroke-miterlimit="10" stroke-linecap="round"/>
<path d="M74.9736 46.7106C75.6108 46.7106 76.1272 46.1941 76.1272 45.5569C76.1272 44.9198 75.6108 44.4033 74.9736 44.4033C74.3365 44.4033 73.82 44.9198 73.82 45.5569C73.82 46.1941 74.3365 46.7106 74.9736 46.7106Z" stroke="#AAAAE5" stroke-width="1.12548" stroke-miterlimit="10" stroke-linecap="round"/>
<path d="M93.3752 26.2267C94.0124 26.2267 94.5289 25.7102 94.5289 25.0731C94.5289 24.4359 94.0124 23.9194 93.3752 23.9194C92.7381 23.9194 92.2216 24.4359 92.2216 25.0731C92.2216 25.7102 92.7381 26.2267 93.3752 26.2267Z" stroke="#AAAAE5" stroke-width="1.12548" stroke-miterlimit="10" stroke-linecap="round"/>
</g>
<g clip-path="url(#clip1)">
<path d="M41.9552 117.756C35.343 116.095 32.2761 120.794 32.2761 120.794C32.2761 120.794 28.5902 116.546 22.2875 119.05C14.2966 122.201 14.1559 133.034 21.6122 139.083C27.324 143.698 31.5164 145.47 33.1765 146.061C33.683 146.23 34.2457 146.202 34.724 145.949C36.2997 145.161 40.2107 142.854 45.2473 137.508C51.8313 130.53 50.2557 119.81 41.9552 117.756Z" fill="#F73959"/>
<path opacity="0.5" d="M45.6412 134.947C42.5743 138.211 39.9013 140.321 37.9598 141.672C35.7652 143.191 32.9233 143.36 30.5317 142.178C28.4214 141.109 25.4951 139.336 22.0343 136.523C18.2358 133.484 16.4069 129.207 16.5476 125.324C15.2814 129.77 16.9978 135.341 21.6122 139.083C27.324 143.698 31.5165 145.47 33.1765 146.061C33.683 146.23 34.2458 146.202 34.7241 145.949C36.2998 145.161 40.2108 142.854 45.2473 137.508C47.8078 134.778 49.1584 131.486 49.3272 128.363C48.7082 130.67 47.4983 132.977 45.6412 134.947Z" fill="#C02344"/>
<path d="M34.1332 122.032C34.1895 121.976 35.6526 119.866 38.7195 119.669M25.3545 120.569C25.467 120.569 25.5795 120.541 25.6921 120.541L25.3545 120.569ZM19.4457 124.171C20.2617 122.82 21.4715 121.779 23.0754 121.132L19.4457 124.171Z" stroke="white" stroke-width="1.12548" stroke-miterlimit="10" stroke-linecap="round" stroke-linejoin="round"/>
<path d="M25.1293 134.919C26.5278 134.919 27.6616 133.785 27.6616 132.387C27.6616 130.988 26.5278 129.854 25.1293 129.854C23.7307 129.854 22.5969 130.988 22.5969 132.387C22.5969 133.785 23.7307 134.919 25.1293 134.919Z" fill="#F95F80"/>
<path d="M41.7019 133.794C43.1005 133.794 44.2343 132.66 44.2343 131.261C44.2343 129.863 43.1005 128.729 41.7019 128.729C40.3034 128.729 39.1696 129.863 39.1696 131.261C39.1696 132.66 40.3034 133.794 41.7019 133.794Z" fill="#F95F80"/>
<path d="M30.8693 132.809C30.8693 132.809 31.1225 136.776 33.5141 136.635C35.9058 136.495 36.1027 132.471 36.1027 132.471" stroke="#1D1952" stroke-width="1.12548" stroke-miterlimit="10" stroke-linecap="round"/>
<path d="M44.0093 121.498L48.68 117.559" stroke="#FFAA00" stroke-width="1.12548" stroke-miterlimit="10" stroke-linecap="round"/>
<path d="M17.7574 143.163L24.0601 137.874" stroke="#FFAA00" stroke-width="1.12548" stroke-miterlimit="10" stroke-linecap="round"/>
<path d="M43.3058 120.091C43.3058 120.091 43.5028 121.582 45.1629 122.257M22.8221 137.001C22.8221 137.001 24.1164 137.395 24.7917 139.055" stroke="#1D1952" stroke-width="1.12548" stroke-miterlimit="10" stroke-linecap="round"/>
<path d="M46.2321 117.784L48.68 117.559L48.0047 120.091" stroke="#FFAA00" stroke-width="1.12548" stroke-miterlimit="10" stroke-linecap="round" stroke-linejoin="round"/>
<path d="M19.2486 143.698L19.4174 141.756L17.6448 141.503" stroke="#FFAA00" stroke-width="1.12548" stroke-miterlimit="10" stroke-linecap="round"/>
<path d="M20.8242 142.319L20.993 140.406L19.2204 140.152" stroke="#FFAA00" stroke-width="1.12548" stroke-miterlimit="10" stroke-linecap="round"/>
<path d="M22.4 140.968L22.5688 139.055L20.7961 138.802" stroke="#FFAA00" stroke-width="1.12548" stroke-miterlimit="10" stroke-linecap="round"/>
<path d="M36.0746 126.365C37.0876 126.703 38.607 128.194 38.607 128.194M38.8883 125.099C38.8883 125.099 37.3127 127.125 36.6374 129.066M27.3803 127.209C28.3932 127.547 29.9126 129.038 29.9126 129.038M30.194 125.971C30.194 125.971 28.6183 127.997 27.9431 129.939" stroke="#1D1952" stroke-width="1.12548" stroke-miterlimit="10" stroke-linecap="round"/>
<path d="M28.3636 113.419C28.6416 113.28 28.7543 112.942 28.6153 112.664C28.4763 112.386 28.1383 112.273 27.8603 112.412L28.3636 113.419ZM27.6914 112.497C27.4135 112.636 27.3008 112.974 27.4398 113.252C27.5788 113.53 27.9168 113.642 28.1948 113.503L27.6914 112.497ZM31.876 118.128C31.5693 118.179 31.3612 118.468 31.4113 118.774C31.4614 119.081 31.7507 119.289 32.0574 119.239L31.876 118.128ZM34.0207 117.052L34.528 117.295L34.5288 117.294L34.0207 117.052ZM30.1941 116.151L30.7029 116.392L30.7046 116.388L30.1941 116.151ZM33.5142 114.773L33.0067 114.53L33.0053 114.533L33.5142 114.773ZM29.5847 111.884C29.2791 111.941 29.0775 112.235 29.1344 112.54C29.1912 112.846 29.485 113.047 29.7905 112.991L29.5847 111.884ZM27.8603 112.412C27.8321 112.426 27.804 112.441 27.7759 112.455C27.7477 112.469 27.7196 112.483 27.6915 112.497L28.1948 113.503C28.2229 113.489 28.2511 113.475 28.2792 113.461C28.3073 113.447 28.3355 113.433 28.3636 113.419L27.8603 112.412ZM28.1948 113.503L28.3636 113.419L27.8603 112.412L27.6914 112.497L28.1948 113.503ZM31.9667 118.684C32.0574 119.239 32.0576 119.239 32.0579 119.239C32.058 119.239 32.0583 119.239 32.0584 119.239C32.0588 119.239 32.0592 119.239 32.0596 119.239C32.0605 119.239 32.0614 119.239 32.0624 119.238C32.0644 119.238 32.0668 119.238 32.0695 119.237C32.0749 119.236 32.0816 119.235 32.0896 119.233C32.1056 119.23 32.1267 119.226 32.1525 119.22C32.2039 119.208 32.274 119.19 32.3584 119.164C32.5268 119.113 32.7555 119.027 33.0082 118.89C33.5153 118.616 34.1274 118.13 34.528 117.295L33.5134 116.808C33.2387 117.381 32.8239 117.71 32.4727 117.9C32.2964 117.996 32.1382 118.055 32.027 118.089C31.9716 118.106 31.9287 118.117 31.9021 118.123C31.8888 118.126 31.8797 118.128 31.8751 118.129C31.8729 118.129 31.8718 118.129 31.8719 118.129C31.872 118.129 31.8723 118.129 31.873 118.129C31.8734 118.129 31.8738 118.129 31.8743 118.129C31.8745 118.129 31.8748 118.129 31.8751 118.129C31.8752 118.129 31.8755 118.129 31.8756 118.129C31.8758 118.128 31.876 118.128 31.9667 118.684ZM34.5288 117.294C34.8744 116.568 34.8634 115.875 34.4897 115.325C34.1392 114.809 33.5459 114.535 32.9641 114.433C32.373 114.33 31.7126 114.387 31.1251 114.617C30.535 114.848 29.9834 115.268 29.6836 115.915L30.7046 116.388C30.8549 116.064 31.1475 115.816 31.5351 115.665C31.9253 115.512 32.3764 115.473 32.7701 115.542C33.1731 115.612 33.438 115.78 33.5587 115.957C33.6564 116.101 33.7298 116.354 33.5126 116.81L34.5288 117.294ZM29.6852 115.911C29.5826 116.129 29.5345 116.385 29.6112 116.645C29.6885 116.907 29.8681 117.09 30.0627 117.202C30.4286 117.414 30.9089 117.425 31.349 117.331C32.2699 117.135 33.3604 116.417 34.0232 115.013L33.0053 114.533C32.4863 115.632 31.6776 116.111 31.1143 116.231C30.8123 116.295 30.6542 116.244 30.627 116.229C30.6252 116.228 30.6696 116.255 30.6907 116.326C30.7112 116.396 30.686 116.428 30.7029 116.392L29.6852 115.911ZM34.0218 115.016C34.3059 114.422 34.3793 113.839 34.1898 113.312C34.0021 112.789 33.5931 112.423 33.1206 112.185C32.195 111.718 30.8599 111.647 29.5847 111.884L29.7905 112.991C30.9351 112.778 31.9916 112.876 32.6136 113.19C32.9149 113.342 33.0686 113.519 33.1306 113.692C33.1909 113.86 33.2009 114.124 33.0067 114.53L34.0218 115.016Z" fill="#AAAAE5"/>
</g>
<g clip-path="url(#clip2)">
<path d="M90.8709 71.4567C84.3994 69.4871 81.023 74.2704 81.023 74.2704C81.023 74.2704 77.6465 69.4871 71.175 71.4567C63.0153 73.9327 62.1712 84.6811 69.2054 90.8712C74.5796 95.5982 78.6313 97.5397 80.2633 98.1868C80.7697 98.3838 81.3043 98.3838 81.8108 98.1868C83.4427 97.5397 87.4945 95.5982 92.8686 90.8712C99.8748 84.6811 99.0306 73.9327 90.8709 71.4567Z" fill="#F73959"/>
<path opacity="0.5" d="M96.8642 76.8872C97.5958 80.8827 96.1045 85.5534 92.2779 88.9017C90.0551 90.8432 87.8041 92.447 85.8908 93.6287C82.9927 95.4576 79.3349 95.5702 76.2961 93.9945C73.9326 92.7846 71.0907 91.0683 68.6428 88.9017C66.7576 87.2416 65.4633 85.272 64.7036 83.218C65.2664 85.9473 66.7576 88.7048 69.2055 90.8713C74.5797 95.5983 78.6314 97.5398 80.2634 98.1869C80.7698 98.3839 81.3045 98.3839 81.8109 98.1869C83.4429 97.5398 87.4946 95.5983 92.8688 90.8713C97.2863 86.9603 98.5806 81.1922 96.8642 76.8872Z" fill="#C02344"/>
<path d="M96.1607 83.6685C92.0809 89.943 82.8801 88.5362 80.7417 88.086L79.2785 87.7765C78.5751 87.0449 78.8002 85.9476 78.8002 85.9476" stroke="#1D1952" stroke-width="1.12548" stroke-miterlimit="10" stroke-linecap="round"/>
<path d="M76.8026 87.2695L78.6877 87.2977" stroke="#1D1952" stroke-width="1.12548" stroke-miterlimit="10" stroke-linecap="round"/>
<path d="M76.887 88.1422L78.9128 87.6357" stroke="#1D1952" stroke-width="1.12548" stroke-miterlimit="10" stroke-linecap="round"/>
<path d="M77.3372 88.8173C78.2939 88.6766 79.0817 88.4515 79.2787 87.7762M68.052 87.1572C72.6102 93.7132 80.5167 92.7284 82.6833 92.4188L84.1464 92.1938C84.9061 91.5185 84.7373 90.393 84.7373 90.393" stroke="#1D1952" stroke-width="1.12548" stroke-miterlimit="10" stroke-linecap="round"/>
<path d="M86.6506 91.8281L84.7654 91.7437" stroke="#1D1952" stroke-width="1.12548" stroke-miterlimit="10" stroke-linecap="round"/>
<path d="M86.5098 92.7001L84.512 92.0811" stroke="#1D1952" stroke-width="1.12548" stroke-miterlimit="10" stroke-linecap="round"/>
<path d="M86.0314 93.3472C85.1029 93.1502 84.3151 92.8689 84.1462 92.1936M73.7074 79.8133C73.7074 79.8133 75.3112 77.9281 77.731 79.9258M87.5789 79.8133C87.5789 79.8133 85.9751 77.9281 83.5554 79.9258" stroke="#1D1952" stroke-width="1.12548" stroke-miterlimit="10" stroke-linecap="round"/>
<path d="M72.3006 85.8068C73.6991 85.8068 74.8329 84.6731 74.8329 83.2745C74.8329 81.876 73.6991 80.7422 72.3006 80.7422C70.902 80.7422 69.7682 81.876 69.7682 83.2745C69.7682 84.6731 70.902 85.8068 72.3006 85.8068Z" fill="#F95F80"/>
<path d="M88.9015 85.8068C90.3 85.8068 91.4338 84.6731 91.4338 83.2745C91.4338 81.876 90.3 80.7422 88.9015 80.7422C87.5029 80.7422 86.3691 81.876 86.3691 83.2745C86.3691 84.6731 87.5029 85.8068 88.9015 85.8068Z" fill="#F95F80"/>
<path d="M78.9973 82.4302C78.9973 82.4302 80.376 84.2028 82.2893 82.4302" stroke="#1D1952" stroke-width="1.12548" stroke-miterlimit="10" stroke-linecap="round"/>
<path d="M84.2307 69.0369C84.2307 70.7532 82.852 72.132 81.1356 72.132C79.4192 72.132 78.0405 70.7532 78.0405 69.0369C78.0405 66.4201 81.1356 63.3813 81.1356 63.3813C81.1356 63.3813 84.2307 66.3076 84.2307 69.0369Z" fill="#FFCE00"/>
<path d="M81.1355 67.6299C81.1355 67.6299 79.4755 69.2618 79.4755 70.6687C79.4755 71.2033 79.7287 71.6816 80.1226 71.9911C80.4321 72.1037 80.7698 72.1599 81.1355 72.1599C81.5013 72.1599 81.8108 72.1037 82.1485 71.9911C82.5424 71.6816 82.7956 71.2033 82.7956 70.6687C82.7956 69.1774 81.1355 67.6299 81.1355 67.6299Z" fill="#FFAA00"/>
<path d="M85.4124 73.5388C86.0314 73.3419 86.7348 73.2012 87.5508 73.2012M74.1576 73.2012C74.2701 73.2012 74.3827 73.2012 74.4952 73.2012H74.1576ZM70.0496 74.4673C70.5842 74.1297 71.2032 73.8483 71.8503 73.6232L70.0496 74.4673ZM89.9143 73.5388C90.0268 73.567 90.1113 73.5951 90.2238 73.6232L89.9143 73.5388Z" stroke="white" stroke-width="1.12548" stroke-miterlimit="10" stroke-linecap="round" stroke-linejoin="round"/>
</g>
<path d="M18.4046 69.3462L22.3156 67.5173C23.1316 67.1515 24.0039 66.9546 24.9043 66.9546H41.1393C42.0397 66.9546 42.9119 67.1515 43.7279 67.5173L47.5827 69.29L18.4046 69.3462Z" fill="#FFAA00"/>
<path d="M45.5005 92.5595H37.3689C37.1156 92.5595 36.8906 92.6721 36.7217 92.8409L33.6548 96.0767C33.289 96.4424 32.6981 96.4424 32.3605 96.0767L29.2373 92.8409C29.0685 92.6721 28.8434 92.5595 28.5901 92.5595H20.5148C18.5452 92.5595 16.9695 90.9839 16.9695 89.0143V72.1883C16.9695 70.2187 18.5452 68.6431 20.5148 68.6431H45.5005C47.4701 68.6431 49.0457 70.2187 49.0457 72.1883V89.0143C49.0457 90.9839 47.4701 92.5595 45.5005 92.5595Z" fill="#FFCE00"/>
<path d="M18.095 72.1883C18.095 71.4005 18.4889 70.6689 19.0798 70.2469M20.3459 69.7686C20.4022 69.7686 20.4585 69.7686 20.5148 69.7686H20.3459Z" stroke="white" stroke-width="0.844111" stroke-miterlimit="10" stroke-linecap="round" stroke-linejoin="round"/>
<path d="M33.0076 90.6461C32.67 90.6461 32.3323 90.5898 32.0228 90.4491C30.8411 89.9708 28.3931 88.7609 25.2137 85.9753C22.6813 83.7525 21.4996 80.4605 22.1467 77.4498C22.6813 74.9456 24.4258 73.0604 26.8737 72.3289C27.6053 72.1038 28.3369 71.9912 29.0403 71.9912C30.8129 71.9912 32.1354 72.6946 32.9795 73.3418C33.8236 72.6946 35.146 71.9912 36.9187 71.9912C37.6221 71.9912 38.3536 72.1038 39.0852 72.3289C41.5331 73.0886 43.2776 74.9456 43.8122 77.4498C44.4594 80.4605 43.3058 83.7525 40.7453 85.9753C37.5658 88.789 35.1179 89.9989 33.9361 90.4491C33.6829 90.5616 33.3452 90.6461 33.0076 90.6461Z" fill="#FFAA00"/>
<path d="M38.6914 73.6796C34.9492 72.5542 33.0077 75.3116 33.0077 75.3116C33.0077 75.3116 31.0663 72.5542 27.324 73.6796C22.597 75.1146 22.0905 81.3048 26.1704 84.9063C29.2655 87.6356 31.629 88.7611 32.5575 89.1269C32.8389 89.2394 33.1484 89.2394 33.4579 89.1269C34.3864 88.7611 36.7499 87.6356 39.845 84.9063C43.9249 81.3048 43.4184 75.1146 38.6914 73.6796Z" fill="#F73959"/>
<path d="M34.7522 76.5496C34.8366 76.437 35.2868 75.9305 36.0746 75.6773M28.8434 75.5366C28.9278 75.5366 29.0122 75.5366 29.0685 75.5366H28.8434ZM25.7765 77.675C25.9734 77.1123 26.3674 76.5214 27.0427 76.0994L25.7765 77.675ZM37.8473 75.6492C37.9317 75.6773 37.988 75.6773 38.0724 75.7054L37.8473 75.6492Z" stroke="white" stroke-width="0.844111" stroke-miterlimit="10" stroke-linecap="round" stroke-linejoin="round"/>
<path opacity="0.5" d="M42.1524 76.7466C42.068 78.688 41.1676 80.742 39.3949 82.3177C38.9166 82.7398 38.4383 83.1337 37.9881 83.4995C34.8086 86.0037 30.3067 86.0037 27.1272 83.4995C26.677 83.1337 26.1987 82.7398 25.7203 82.3177C24.623 81.3611 23.8633 80.2074 23.4131 78.9975C23.385 81.0515 24.2854 83.2462 26.1705 84.9063C29.2656 87.6356 31.6291 88.7611 32.5576 89.1269C32.839 89.2394 33.1485 89.2394 33.458 89.1269C34.3866 88.7611 36.7501 87.6356 39.8451 84.9063C42.4337 82.5991 43.1653 79.2508 42.1524 76.7466Z" fill="#C02344"/>
<path d="M28.534 80.8824C28.534 80.8824 28.8154 79.2505 30.0815 79.2505C31.3477 79.2505 31.0663 80.8824 31.0663 80.8824M34.6397 80.8824C34.6397 80.8824 34.9211 79.2505 36.1873 79.2505C37.4534 79.2505 37.1721 80.8824 37.1721 80.8824" stroke="#1D1952" stroke-width="0.844111" stroke-miterlimit="10" stroke-linecap="round"/>
<path d="M34.1332 82.9927C34.4146 82.9927 34.6116 83.2459 34.5271 83.5273C34.3302 84.1463 33.88 85.103 32.8671 85.103C31.826 85.103 31.5165 84.09 31.4321 83.4991C31.4039 83.2459 31.5728 83.0208 31.826 83.0208H34.1332V82.9927Z" fill="#1D1952"/>
<g clip-path="url(#clip3)">
<path d="M143.782 79.9541L146.118 84.3716L140.772 83.4712L143.782 79.9541Z" fill="#FFAA00"/>
<path d="M128.757 85.9754V98.1869L143.782 91.3215V79.9541L128.757 85.9754Z" fill="#FFCE00"/>
<path d="M114.829 81.8394L128.757 85.9755V98.187L114.829 93.8257V81.8394Z" fill="#FFAA00"/>
<path d="M126.928 91.6029L128.757 85.9755L114.829 81.8394V88.5922L125.578 92.2501C126.14 92.4751 126.759 92.1656 126.928 91.6029Z" fill="#1D1952"/>
<path d="M114.829 81.8394L111.819 86.2287L125.831 90.6181L128.757 85.9755L114.829 81.8394Z" fill="#FFCE00"/>
<path d="M114.829 81.8394L130.642 75.7056L143.782 79.9543L128.757 85.9756L114.829 81.8394Z" fill="#FFAA00"/>
<path d="M138.38 85.3281C136.945 85.3843 136.382 86.5942 136.382 86.5942C136.382 86.5942 135.538 85.8627 134.216 86.7068C132.584 87.8041 132.696 90.0551 134.385 90.8148C135.651 91.4057 136.579 91.5182 136.917 91.5464C137.029 91.5464 137.142 91.5182 137.254 91.4338C137.564 91.1806 138.38 90.5053 139.365 89.1547C140.687 87.4102 140.181 85.2437 138.38 85.3281Z" fill="#FFAA00"/>
<path d="M130.642 75.7056V85.2159L143.782 79.9543L130.642 75.7056Z" fill="#1D1952"/>
<path d="M136.973 74.4958C135.004 73.2015 133.4 74.4395 133.4 74.4395C133.4 74.4395 132.753 72.498 130.389 72.498C127.407 72.498 126.056 76.0152 127.772 78.7726C129.095 80.8829 130.248 81.9521 130.727 82.3179C130.867 82.4304 131.064 82.4867 131.233 82.4585C131.852 82.4023 133.4 82.1772 135.651 81.1361C138.661 79.8137 139.449 76.1277 136.973 74.4958Z" fill="#F73959"/>
<path d="M134.188 75.452C134.244 75.3957 134.61 75.1987 135.088 75.1706M128.842 74.5516C129.067 74.2702 129.376 73.9888 129.854 73.8481L128.842 74.5516Z" stroke="white" stroke-width="0.844111" stroke-miterlimit="10" stroke-linecap="round" stroke-linejoin="round"/>
<path opacity="0.5" d="M138.436 76.8592C138.07 77.9847 137.17 78.9977 135.876 79.5885C135.51 79.7574 135.172 79.898 134.863 80.0106C132.584 80.911 129.995 80.1231 128.588 78.1254C128.391 77.844 128.194 77.5345 127.969 77.1969C127.491 76.4372 127.266 75.6493 127.21 74.8896C126.844 76.0714 126.985 77.5064 127.772 78.7726C129.095 80.8828 130.248 81.952 130.727 82.3178C130.867 82.4304 131.064 82.4866 131.233 82.4585C131.852 82.4022 133.4 82.1771 135.651 81.1361C137.592 80.292 138.605 78.4912 138.436 76.8592Z" fill="#C02344"/>
<path d="M132.809 78.8007C132.978 78.857 133.034 79.0258 132.95 79.1665C132.725 79.476 132.302 79.9543 131.712 79.7855C131.121 79.6167 131.093 78.9695 131.149 78.6037C131.177 78.463 131.318 78.3505 131.458 78.4068L132.809 78.8007ZM133.569 78.4068C133.737 77.9003 134.272 77.5908 134.779 77.7596C135.285 77.9284 135.594 78.463 135.426 78.9695L133.569 78.4068ZM129.236 77.1125C129.404 76.606 129.939 76.2965 130.445 76.4653C130.952 76.6341 131.261 77.1687 131.093 77.6752" fill="#1D1952"/>
<path d="M125.437 63.916C123.073 64.1129 122.595 66.0825 122.595 66.0825C122.595 66.0825 120.879 64.957 119.05 66.4201C116.715 68.2772 117.812 71.8506 120.879 72.9761C123.214 73.8202 124.79 73.9327 125.409 73.9327C125.606 73.9327 125.775 73.8765 125.915 73.7358C126.366 73.3137 127.435 72.1601 128.56 69.9654C130.051 67.0673 128.391 63.6909 125.437 63.916Z" fill="#EF8FA9"/>
<path d="M123.833 66.3918C123.861 66.3074 124.002 65.9135 124.368 65.604M119.078 69.0367C119.078 68.6709 119.162 68.2489 119.444 67.855L119.078 69.0367Z" stroke="white" stroke-width="0.844111" stroke-miterlimit="10" stroke-linecap="round" stroke-linejoin="round"/>
<path d="M128.054 64.9009C128.448 65.9982 128.391 67.3769 127.744 68.6431C127.575 68.9807 127.378 69.3184 127.21 69.6279C125.972 71.7382 123.467 72.723 121.132 72.0195C120.794 71.907 120.457 71.7944 120.091 71.6819C119.275 71.3724 118.572 70.8941 118.065 70.3313C118.487 71.4849 119.5 72.526 120.907 73.0325C123.242 73.8766 124.818 73.9891 125.437 73.9891C125.634 73.9891 125.803 73.9329 125.943 73.7922C126.394 73.3701 127.463 72.2165 128.588 70.0218C129.517 68.1085 129.179 66.0545 128.054 64.9009Z" fill="#E87498"/>
<path d="M124.818 69.8808C124.959 69.8245 125.127 69.9371 125.156 70.0778C125.184 70.4717 125.127 71.0907 124.565 71.3158C123.974 71.5409 123.58 71.0626 123.383 70.7249C123.299 70.5842 123.355 70.4154 123.495 70.3873L124.818 69.8808ZM125.184 69.1211C124.987 68.6146 125.24 68.0519 125.746 67.8549C126.253 67.658 126.816 67.9112 127.013 68.4177L125.184 69.1211ZM120.963 70.7812C120.766 70.2747 121.019 69.712 121.526 69.515C122.032 69.3181 122.595 69.5713 122.792 70.0778" fill="#1D1952"/>
<path d="M122.905 81.2485C121.019 81.558 120.429 82.9367 120.288 83.4431L126.872 85.3846C127.013 82.9648 125.296 80.8827 122.905 81.2485Z" fill="#F73959"/>
<path opacity="0.5" d="M124.874 81.5581C125.718 82.4585 125.972 83.7528 125.634 85.0471L126.872 85.4129C126.956 83.7247 126.169 82.2053 124.874 81.5581Z" fill="#C02344"/>
</g>
<path d="M91.1523 114.942C84.6808 112.972 81.3044 117.756 81.3044 117.756C81.3044 117.756 77.9279 112.972 71.4564 114.942C63.2967 117.418 62.4526 128.195 69.4868 134.385C74.861 139.112 78.9409 141.053 80.5447 141.7C81.0512 141.897 81.5858 141.897 82.0922 141.7C83.7242 141.053 87.7759 139.112 93.1501 134.385C100.156 128.166 99.3121 117.418 91.1523 114.942Z" fill="#F73959"/>
<path opacity="0.5" d="M97.1455 120.372C97.849 124.368 96.3577 129.038 92.5592 132.415C90.3364 134.356 88.0573 135.96 86.1721 137.142C83.274 138.971 79.6162 139.083 76.5774 137.508C74.1857 136.298 71.3439 134.553 68.896 132.415C67.0108 130.755 65.6883 128.757 64.9286 126.703C65.4914 129.46 66.9827 132.19 69.4587 134.356C74.8329 139.083 78.9127 141.025 80.5166 141.672C81.023 141.869 81.5576 141.869 82.0641 141.672C83.696 141.025 87.7478 139.083 93.1219 134.356C97.5676 130.445 98.8619 124.677 97.1455 120.372Z" fill="#C02344"/>
<path d="M88.0854 116.714C88.3387 116.714 88.6201 116.742 88.8733 116.771" stroke="white" stroke-width="1.12548" stroke-miterlimit="10" stroke-linecap="round" stroke-linejoin="round"/>
<path d="M94.7257 130.558V132.077C94.8664 134.272 93.2345 136.157 91.0398 136.298L89.5485 136.41C88.6763 135.904 88.5919 134.778 88.5919 134.778" stroke="#1D1952" stroke-width="1.12548" stroke-miterlimit="10" stroke-linecap="round"/>
<path d="M87.0164 136.579L88.8734 136.101" stroke="#1D1952" stroke-width="1.12548" stroke-miterlimit="10" stroke-linecap="round"/>
<path d="M87.3538 137.395L89.1827 136.354" stroke="#1D1952" stroke-width="1.12548" stroke-miterlimit="10" stroke-linecap="round"/>
<path d="M87.9728 137.93C88.8451 137.536 89.5485 137.114 89.5767 136.41" stroke="#1D1952" stroke-width="1.12548" stroke-miterlimit="10" stroke-linecap="round"/>
<path d="M74.9455 128.588C76.9656 128.588 78.6033 126.95 78.6033 124.93C78.6033 122.91 76.9656 121.272 74.9455 121.272C72.9253 121.272 71.2877 122.91 71.2877 124.93C71.2877 126.95 72.9253 128.588 74.9455 128.588Z" fill="white"/>
<path d="M74.8329 128.588C75.7052 128.138 76.296 127.238 76.296 126.196C76.296 124.705 75.0862 123.523 73.623 123.523C72.6382 123.523 71.766 124.058 71.2877 124.874C71.2877 124.902 71.2877 124.93 71.2877 124.93C71.2877 126.928 72.8633 128.532 74.8329 128.588Z" fill="#1D1952"/>
<path d="M87.1288 128.588C89.1489 128.588 90.7866 126.95 90.7866 124.93C90.7866 122.91 89.1489 121.272 87.1288 121.272C85.1086 121.272 83.4709 122.91 83.4709 124.93C83.4709 126.95 85.1086 128.588 87.1288 128.588Z" fill="white"/>
<path d="M87.0162 128.588C87.8885 128.138 88.4793 127.238 88.4793 126.196C88.4793 124.705 87.2694 123.523 85.8063 123.523C84.8215 123.523 83.9493 124.058 83.4709 124.874C83.4709 124.902 83.4709 124.93 83.4709 124.93C83.4709 126.928 85.0466 128.532 87.0162 128.588Z" fill="#1D1952"/>
<path d="M80.0102 131.908C79.2786 131.908 78.7159 131.318 78.7159 130.614C78.7159 129.911 79.1661 129.32 80.4885 129.32M80.5167 134.497C79.3912 134.497 78.744 133.906 78.744 133.203C78.744 132.499 79.3349 131.908 80.0383 131.908" stroke="#1D1952" stroke-width="1.12548" stroke-miterlimit="10" stroke-linecap="round"/>
<path d="M72.8634 143.726L68.8116 144.851C67.9957 145.076 67.1234 144.598 66.8983 143.782L64.5067 135.116C64.2816 134.3 64.7599 133.428 65.5759 133.203L69.6276 132.077C70.4436 131.852 71.3158 132.33 71.5409 133.146L73.9607 141.813C74.1858 142.657 73.7075 143.501 72.8634 143.726Z" fill="#AAAAE5"/>
<path d="M69.2335 140.715C70.4611 140.715 71.4563 139.72 71.4563 138.492C71.4563 137.265 70.4611 136.27 69.2335 136.27C68.0059 136.27 67.0107 137.265 67.0107 138.492C67.0107 139.72 68.0059 140.715 69.2335 140.715Z" fill="#7A61F7"/>
<path d="M69.8244 134.356L69.5993 133.541C69.5149 133.231 69.6837 132.921 69.9932 132.837C70.3027 132.753 70.6122 132.921 70.6966 133.231L70.9217 134.047C71.0061 134.356 70.8373 134.666 70.5278 134.75C70.2183 134.835 69.9088 134.666 69.8244 134.356Z" fill="#7A61F7"/>
<path d="M70.1621 133.681C70.3175 133.681 70.4435 133.555 70.4435 133.4C70.4435 133.244 70.3175 133.118 70.1621 133.118C70.0067 133.118 69.8807 133.244 69.8807 133.4C69.8807 133.555 70.0067 133.681 70.1621 133.681Z" fill="white"/>
<path d="M66.1105 142.488L66.2231 142.432" stroke="#1D1952" stroke-width="1.12548" stroke-miterlimit="10" stroke-linecap="round"/>
<path d="M66.223 142.432C66.7576 141.672 66.3918 140.687 66.3918 140.687" stroke="#1D1952" stroke-width="1.12548" stroke-miterlimit="10" stroke-linecap="round"/>
<path d="M68.3334 141.362L66.7014 141.925" stroke="#1D1952" stroke-width="1.12548" stroke-miterlimit="10" stroke-linecap="round"/>
<path d="M68.3615 142.178L66.5326 142.263" stroke="#1D1952" stroke-width="1.12548" stroke-miterlimit="10" stroke-linecap="round"/>
<path d="M68.1644 143.107C67.5454 143.135 66.8982 142.994 66.2511 142.432" stroke="#1D1952" stroke-width="1.12548" stroke-miterlimit="10" stroke-linecap="round"/>
<path d="M69.4587 130.867L69.2055 129.995" stroke="#FFCE00" stroke-width="1.12548" stroke-miterlimit="10" stroke-linecap="round"/>
<path d="M71.4565 131.12L71.9067 130.333" stroke="#FFCE00" stroke-width="1.12548" stroke-miterlimit="10" stroke-linecap="round"/>
<path d="M72.7226 132.753L73.5948 132.5" stroke="#FFCE00" stroke-width="1.12548" stroke-miterlimit="10" stroke-linecap="round"/>
<path d="M72.1036 117.136C72.3005 117.08 72.4975 117.024 72.6945 116.967M91.0679 117.333C92.4185 117.868 93.5158 118.712 94.3037 119.837L91.0679 117.333ZM75.0298 116.771C76.4648 116.883 77.5622 117.446 78.2937 117.98L75.0298 116.771Z" stroke="white" stroke-width="1.12548" stroke-miterlimit="10" stroke-linecap="round" stroke-linejoin="round"/>
<path d="M142.798 139.168L143.726 131.965" stroke="#1D1952" stroke-width="1.12548" stroke-miterlimit="10" stroke-linecap="round"/>
<path d="M138.915 117.53C132.415 115.448 129.039 119.95 129.039 119.95C129.039 119.95 125.662 115.448 119.162 117.53C111.003 120.147 110.159 130.924 117.193 137.479C122.567 142.46 126.647 144.514 128.251 145.217C128.757 145.414 129.292 145.414 129.798 145.217C131.43 144.542 135.482 142.488 140.856 137.479C147.918 130.924 147.074 120.147 138.915 117.53Z" fill="#F73959"/>
<path opacity="0.5" d="M141.447 134.947C138.183 137.986 135.369 139.928 133.344 141.137C131.036 142.488 128.194 142.488 125.887 141.137C123.833 139.928 121.048 137.986 117.784 134.947C114.21 131.655 112.663 127.266 113.057 123.411C111.509 127.772 112.832 133.428 117.193 137.48C122.567 142.46 126.647 144.514 128.251 145.217C128.757 145.414 129.292 145.414 129.798 145.217C131.43 144.542 135.482 142.488 140.856 137.48C143.614 134.919 145.133 131.74 145.527 128.616C144.795 130.867 143.445 133.09 141.447 134.947Z" fill="#C02344"/>
<path d="M130.839 121.301C130.896 121.244 132.499 119.247 135.566 119.247M122.173 119.247C122.286 119.247 122.398 119.247 122.511 119.247H122.173ZM116.039 122.454C116.94 121.16 118.234 120.203 119.866 119.669L116.039 122.454ZM137.93 119.584C138.042 119.612 138.127 119.641 138.239 119.669L137.93 119.584Z" stroke="white" stroke-width="1.12548" stroke-miterlimit="10" stroke-linecap="round" stroke-linejoin="round"/>
<path d="M121.16 136.354C122.559 136.354 123.693 135.22 123.693 133.822C123.693 132.423 122.559 131.29 121.16 131.29C119.762 131.29 118.628 132.423 118.628 133.822C118.628 135.22 119.762 136.354 121.16 136.354Z" fill="#F95F80"/>
<path d="M137.761 136.354C139.16 136.354 140.293 135.22 140.293 133.822C140.293 132.423 139.16 131.29 137.761 131.29C136.362 131.29 135.229 132.423 135.229 133.822C135.229 135.22 136.362 136.354 137.761 136.354Z" fill="#F95F80"/>
<path d="M123.889 133.259C126.531 133.259 128.673 131.117 128.673 128.476C128.673 125.834 126.531 123.692 123.889 123.692C121.248 123.692 119.106 125.834 119.106 128.476C119.106 131.117 121.248 133.259 123.889 133.259Z" fill="white"/>
<path d="M124.199 131.993C126.141 131.993 127.716 130.418 127.716 128.476C127.716 126.533 126.141 124.958 124.199 124.958C122.257 124.958 120.682 126.533 120.682 128.476C120.682 130.418 122.257 131.993 124.199 131.993Z" fill="#1D1952"/>
<path d="M123.749 126.281C123.89 126.253 124.058 126.225 124.199 126.225M121.976 128.476C121.976 127.997 122.117 127.575 122.37 127.209L121.976 128.476Z" stroke="white" stroke-width="1.12548" stroke-miterlimit="10" stroke-linecap="round" stroke-linejoin="round"/>
<path d="M136.157 133.259C138.799 133.259 140.94 131.117 140.94 128.476C140.94 125.834 138.799 123.692 136.157 123.692C133.515 123.692 131.374 125.834 131.374 128.476C131.374 131.117 133.515 133.259 136.157 133.259Z" fill="white"/>
<path d="M135.904 131.993C137.846 131.993 139.421 130.418 139.421 128.476C139.421 126.533 137.846 124.958 135.904 124.958C133.961 124.958 132.387 126.533 132.387 128.476C132.387 130.418 133.961 131.993 135.904 131.993Z" fill="#1D1952"/>
<path d="M135.454 126.281C135.594 126.253 135.763 126.225 135.904 126.225M133.653 128.476C133.653 127.997 133.794 127.575 134.047 127.209L133.653 128.476Z" stroke="white" stroke-width="1.12548" stroke-miterlimit="10" stroke-linecap="round" stroke-linejoin="round"/>
<path d="M129.742 138.042C128.419 138.042 127.35 136.973 127.35 135.65V133.822C127.35 133.512 127.603 133.259 127.913 133.259H131.571C131.88 133.259 132.133 133.512 132.133 133.822V135.65C132.133 136.973 131.064 138.042 129.742 138.042Z" fill="#1D1952"/>
<path d="M129.742 138.042C130.473 138.042 131.121 137.704 131.571 137.198C131.121 136.269 130.136 135.51 129.038 135.51C128.391 135.51 127.828 135.51 127.35 135.51V135.65C127.35 136.973 128.419 138.042 129.742 138.042Z" fill="#EF8FA9"/>
<path d="M127.35 134.384H130.164C130.473 134.384 130.727 134.131 130.727 133.822V133.259H127.913C127.603 133.259 127.35 133.512 127.35 133.822V134.384Z" fill="white"/>
<path d="M114.97 132.302L116.461 139.899C116.686 140.94 117.277 141.869 118.15 142.46C119.922 143.698 122.398 143.304 123.693 141.559C123.918 141.222 124.171 140.912 124.368 140.575C124.34 139.562 123.411 138.943 123.411 138.943" stroke="#1D1952" stroke-width="1.12548" stroke-miterlimit="10" stroke-linecap="round"/>
<path d="M125.268 138.126L124.424 139.815" stroke="#1D1952" stroke-width="1.12548" stroke-miterlimit="10" stroke-linecap="round"/>
<path d="M126.056 138.971L124.508 140.209" stroke="#1D1952" stroke-width="1.12548" stroke-miterlimit="10" stroke-linecap="round"/>
<path d="M126.45 139.899L124.368 140.575" stroke="#1D1952" stroke-width="1.12548" stroke-miterlimit="10" stroke-linecap="round"/>
<path d="M142.769 139.14C142.657 140.068 142.235 140.912 141.588 141.559C139.731 143.416 136.635 143.135 135.172 140.94C135.144 140.912 135.144 140.884 135.116 140.856C135.116 139.843 136.073 139.224 136.073 139.224" stroke="#1D1952" stroke-width="1.12548" stroke-miterlimit="10" stroke-linecap="round"/>
<path d="M134.216 138.436L135.06 140.096" stroke="#1D1952" stroke-width="1.12548" stroke-miterlimit="10" stroke-linecap="round"/>
<path d="M133.428 139.28L134.975 140.49" stroke="#1D1952" stroke-width="1.12548" stroke-miterlimit="10" stroke-linecap="round"/>
<path d="M133.034 140.208L135.116 140.856" stroke="#1D1952" stroke-width="1.12548" stroke-miterlimit="10" stroke-linecap="round"/>
<path d="M125.69 113.901C125.184 113.732 124.902 114.098 124.902 114.098C124.902 114.098 124.621 113.732 124.114 113.901C123.467 114.098 123.383 114.97 123.946 115.505C124.368 115.898 124.705 116.067 124.846 116.124C124.874 116.152 124.93 116.152 124.959 116.124C125.099 116.067 125.409 115.898 125.859 115.505C126.422 114.998 126.337 114.126 125.69 113.901ZM139.027 112.353C138.352 112.128 137.986 112.606 137.986 112.606C137.986 112.606 137.62 112.128 136.945 112.353C136.073 112.635 135.988 113.76 136.748 114.463C137.311 114.998 137.733 115.195 137.93 115.279C137.986 115.308 138.042 115.308 138.099 115.279C138.267 115.195 138.689 114.998 139.28 114.463C139.984 113.788 139.871 112.635 139.027 112.353Z" fill="#F95F80"/>
<path d="M120.963 112.128C120.232 111.903 119.838 112.409 119.838 112.409C119.838 112.409 119.444 111.903 118.712 112.128C117.784 112.409 117.671 113.647 118.487 114.407C119.106 114.97 119.556 115.223 119.753 115.279C119.81 115.307 119.866 115.307 119.922 115.279C120.119 115.195 120.569 114.97 121.188 114.407C121.976 113.647 121.892 112.409 120.963 112.128Z" fill="#EF8FA9"/>
<path d="M141.981 116.939C142.603 116.939 143.107 116.436 143.107 115.814C143.107 115.192 142.603 114.688 141.981 114.688C141.36 114.688 140.856 115.192 140.856 115.814C140.856 116.436 141.36 116.939 141.981 116.939Z" stroke="#AAAAE5" stroke-width="1.12548" stroke-miterlimit="10" stroke-linecap="round"/>
<path d="M115.814 116.94C116.28 116.94 116.658 116.562 116.658 116.096C116.658 115.629 116.28 115.251 115.814 115.251C115.348 115.251 114.97 115.629 114.97 116.096C114.97 116.562 115.348 116.94 115.814 116.94Z" fill="#AAAAE5"/>
<path d="M142.826 37.5098V43.5592" stroke="#1D1952" stroke-width="1.12548" stroke-miterlimit="10" stroke-linecap="round"/>
<path d="M138.915 21.4996C132.415 19.4174 129.039 23.9194 129.039 23.9194C129.039 23.9194 125.662 19.4174 119.162 21.4996C111.003 24.1163 110.159 34.8928 117.193 41.4487C122.567 46.429 126.647 48.483 128.251 49.1864C128.757 49.3834 129.292 49.3834 129.798 49.1864C131.43 48.5111 135.482 46.4571 140.856 41.4487C147.918 34.8928 147.074 24.1163 138.915 21.4996Z" fill="#F73959"/>
<path opacity="0.5" d="M141.447 38.9165C138.183 41.9553 135.369 43.8968 133.344 45.1067C131.036 46.4573 128.194 46.4573 125.887 45.1067C123.833 43.8968 121.048 41.9553 117.784 38.9165C114.21 35.6245 112.663 31.2351 113.057 27.3804C111.509 31.7416 112.832 37.3971 117.193 41.4489C122.567 46.4291 126.647 48.4831 128.251 49.1866C128.757 49.3835 129.292 49.3835 129.798 49.1866C131.43 48.5113 135.482 46.4573 140.856 41.4489C143.614 38.8884 145.133 35.7089 145.527 32.5857C144.795 34.8367 143.445 37.0595 141.447 38.9165Z" fill="#C02344"/>
<path d="M130.839 25.2698C130.896 25.2135 132.499 23.2158 135.566 23.2158M122.173 23.2158C122.286 23.2158 122.398 23.2158 122.511 23.2158H122.173ZM116.039 26.4234C116.94 25.1291 118.234 24.1725 119.866 23.6379L116.039 26.4234ZM137.93 23.5535C138.042 23.5816 138.127 23.6097 138.239 23.6379L137.93 23.5535Z" stroke="white" stroke-width="1.12548" stroke-miterlimit="10" stroke-linecap="round" stroke-linejoin="round"/>
<path d="M121.723 37.5095C123.121 37.5095 124.255 36.3757 124.255 34.9772C124.255 33.5786 123.121 32.4448 121.723 32.4448C120.324 32.4448 119.19 33.5786 119.19 34.9772C119.19 36.3757 120.324 37.5095 121.723 37.5095Z" fill="#F95F80"/>
<path d="M138.324 37.5095C139.722 37.5095 140.856 36.3757 140.856 34.9772C140.856 33.5786 139.722 32.4448 138.324 32.4448C136.925 32.4448 135.791 33.5786 135.791 34.9772C135.791 36.3757 136.925 37.5095 138.324 37.5095Z" fill="#F95F80"/>
<path d="M120.879 33.8519C120.879 33.8519 121.442 29.6313 123.974 29.6313C126.506 29.6313 125.943 33.8519 125.943 33.8519M132.978 33.8519C132.978 33.8519 133.54 29.6313 136.073 29.6313C138.605 29.6313 138.042 33.8519 138.042 33.8519M128.194 37.7911C128.194 37.7911 128.194 39.7607 129.601 39.7607C131.008 39.7607 131.289 37.7911 131.289 37.7911" stroke="#1D1952" stroke-width="1.12548" stroke-miterlimit="10" stroke-linecap="round"/>
<path d="M124.368 16.5754L124.03 20.3458H132.921L132.162 16.5754L130.53 18.0104L128.363 15.5625L126.759 17.9541L124.368 16.5754Z" fill="#FFCE00"/>
<path d="M124.762 18.517L124.34 16.9976L124.03 20.3459H132.921L132.696 19.2204L126.422 19.6987C125.662 19.755 124.959 19.2485 124.762 18.517Z" fill="#FFAA00"/>
<path d="M115.251 37.5098V43.5592C115.251 45.36 116.686 46.795 118.487 46.795C120.288 46.795 121.723 45.36 121.723 43.5592V43.4185C121.16 42.5744 120.035 42.5744 120.035 42.5744" stroke="#1D1952" stroke-width="1.12548" stroke-miterlimit="10" stroke-linecap="round"/>
<path d="M121.442 40.8862L121.385 42.7433" stroke="#1D1952" stroke-width="1.12548" stroke-miterlimit="10" stroke-linecap="round"/>
<path d="M122.286 41.1675L121.667 43.0245" stroke="#1D1952" stroke-width="1.12548" stroke-miterlimit="10" stroke-linecap="round"/>
<path d="M123.13 41.73C122.933 42.3771 122.539 42.968 121.723 43.4182" stroke="#1D1952" stroke-width="1.12548" stroke-miterlimit="10" stroke-linecap="round"/>
<path d="M142.826 43.5595C142.826 45.3603 141.391 46.7953 139.59 46.7953C137.789 46.7953 136.354 45.3603 136.354 43.5595V43.4188C136.917 42.5747 138.042 42.5747 138.042 42.5747" stroke="#1D1952" stroke-width="1.12548" stroke-miterlimit="10" stroke-linecap="round"/>
<path d="M136.636 40.8862L136.692 42.7433" stroke="#1D1952" stroke-width="1.12548" stroke-miterlimit="10" stroke-linecap="round"/>
<path d="M135.791 41.1675L136.41 43.0245" stroke="#1D1952" stroke-width="1.12548" stroke-miterlimit="10" stroke-linecap="round"/>
<path d="M134.947 41.7305C135.144 42.3776 135.538 42.9685 136.354 43.4187" stroke="#1D1952" stroke-width="1.12548" stroke-miterlimit="10" stroke-linecap="round"/>
<defs>
<clipPath id="clip0">
<rect width="36.0154" height="36.0154" fill="white" transform="translate(63.0154 15)"/>
</clipPath>
<clipPath id="clip1">
<rect width="36.0154" height="36.0154" fill="white" transform="translate(15 111.031)"/>
</clipPath>
<clipPath id="clip2">
<rect width="36.0154" height="36.0154" fill="white" transform="translate(63.0154 63.0156)"/>
</clipPath>
<clipPath id="clip3">
<rect width="36.0154" height="36.0154" fill="white" transform="translate(111.031 63.0156)"/>
</clipPath>
</defs>
</svg>
